<?xml version="1.0" encoding="iso-8859-1"?>
<!-- Uploaded to: SVG Repo, www.svgrepo.com, Generator: SVG Repo Mixer Tools -->
<svg height="800px" width="800px" version="1.1" id="Capa_1" xmlns="http://www.w3.org/2000/svg" xmlns:xlink="http://www.w3.org/1999/xlink" 
	 viewBox="0 0 23.189 23.189" xml:space="preserve">
<g>
	<g>
		<path style="fill:#090509;" d="M23.189,11.595c0,6.403-5.188,11.594-11.591,11.594c-1.641,0-3.204-0.34-4.62-0.959l0.023-11.574
			c0,0-0.051-0.446,0.202-1.259c1.256-2.844,3.292-2.779,3.292-2.779c1.027-0.231,2.588,0.033,2.588,0.033
			c3.156,0.832,3.491,3.721,3.491,3.721c0.165,0.635,0,1.494,0,1.494c-0.233,3.086-3.69,3.525-3.69,3.525l-2.223,0.065
			c-0.931,0.664-0.765,1.36-0.765,1.36c-0.033,1.035,0.765,1.265,0.765,1.265c1.205,0.438,3.255-0.034,3.255-0.034
			c4.849-0.729,5.448-6.015,5.448-6.015l0.123-1.178l-0.123-1.246c-1.096-4.552-5.846-5.781-5.846-5.781s-2.512-0.393-3.759,0
			C6.025,4.81,4.783,7.79,4.402,9.166c-0.121,0.435-0.155,1.464-0.155,1.588c0,1.423,0,6.117,0,9.807
			C1.655,18.436,0,15.209,0,11.594C0,5.191,5.19,0,11.596,0C18,0.001,23.189,5.192,23.189,11.595z"/>
	</g>
</g>
</svg>