<svg t="1741497814843" class="icon" viewBox="0 0 1024 1024" version="1.1" xmlns="http://www.w3.org/2000/svg" p-id="5109" width="256" height="256"><path d="M734.72 654.592c71.850667-92.177067 118.493867-170.154667 139.8784-233.864533 12.151467-30.754133 14.114133-75.2128 13.568-93.610667-3.293867-79.394133-39.765333-120.149333-109.346133-122.197333-104.192-3.310933-174.813867 55.278933-211.729067 175.991466 19.063467-8.157867 37.614933-12.288 55.620267-12.288 38.263467 0 55.125333 21.418667 50.6368 64.2048-2.286933 25.924267-19.114667 63.658667-50.602667 113.237334-31.5392 49.578667-55.1936 74.359467-70.912 74.359466-20.292267 0-38.843733-38.212267-55.7056-114.602666-5.6832-22.442667-15.803733-79.701333-30.4128-171.8272-13.5168-85.384533-49.544533-125.269333-108.032-119.637334-24.797867 2.2528-61.917867 24.644267-111.445333 67.293867A9527.978667 9527.978667 0 0 1 136.533333 379.221333l35.396267 45.448534c33.672533-23.5008 53.3504-35.293867 58.9824-35.293867 25.821867 0 49.937067 40.362667 72.430933 121.053867l60.689067 221.866666C394.325333 813.0048 431.445333 853.333333 475.255467 853.333333c70.741333 0 157.2352-66.2528 259.464533-198.741333z" p-id="5110"></path></svg>
