<svg t="1741498578700" class="icon" viewBox="0 0 1024 1024" version="1.1" xmlns="http://www.w3.org/2000/svg" p-id="11524" width="256" height="256"><path d="M678.485951 411.813026c24.700437 65.648087 50.093487 131.054176 73.867658 197.027707 17.365408 48.199231 33.212074 97.032662 30.725341 149.420953-5.098637 50.402243-18.266641 98.38451-43.37597 142.770194l-0.100137 0.166895c-3.838581 2.520112-5.941456 6.175109-7.026273 10.514375l-0.15855 0.258687c-16.497555 20.336137-34.555577 39.211943-53.923724 56.852728l-0.15855 0.091792c-8.027642 3.346242-14.820262 8.486603-21.062129 14.41137l-0.342134 0.191929c-39.020014 21.938327-81.135928 34.129995-125.463198 39.378838-23.165004-0.225308-47.26462 3.504792-69.269705-1.61888-31.935328-7.435165-64.187757-16.697829-92.24278-35.356673C300.969816 941.220158 260.622987 878.117218 245.310385 797.899211c-10.497686-54.991851-2.211357-107.513658 14.970467-159.760089 38.510985-117.085077 86.701871-230.490123 132.20575-344.904883 37.384445-93.995176 75.519917-187.698285 113.338288-281.526566C507.14336 8.42819 508.653758 5.232153 510.956907 0c4.831606 9.437903 8.878806 17.323685 12.909316 25.201121 0 0 0.075103 0.125171 0.075103 0.125171 0.550753 6.63407 2.58687 12.684008 7.084686 17.765956l0.050068 0.15855c0.433927 6.667449 2.737075 12.592216 7.12641 17.690853l0.066758 0.216963c0.33379 6.717517 2.770454 12.600561 7.118065 17.724232l0.033379 0.141861c13.368277 40.113176 29.231632 79.250016 46.847382 117.702588 0 0 0.100137 0.275376 0.100137 0.275376 0.458961 6.609036 2.820523 12.4587 7.10972 17.532303 0 0 0.133516 0.350479 0.133516 0.350479 0.325445 6.659104 2.76211 12.492079 7.034618 17.590716 0 0 0.100137 0.292066 0.100137 0.292066 7.543647 24.591955 17.215203 48.341091 28.6475 71.389269l0.025034 0.108482c5.440772 18.542017 12.28346 36.524936 21.546124 53.54821l0.025034 0.083447c0.417237 6.709173 2.74542 12.667319 7.10972 17.816025l0.033379 0.100137c0.550753 6.675794 2.753765 12.700698 7.176478 17.841059l-0.008345 0.025034C671.668296 400.514245 674.346959 406.447356 678.485951 411.813026z" p-id="11525" fill="#2c2c2c"></path></svg>
