<svg t="1741497748119" class="icon" viewBox="0 0 1024 1024" version="1.1" xmlns="http://www.w3.org/2000/svg" p-id="4120" width="256" height="256"><path d="M785.066667 853.333333H238.933333c-133.12 0-238.933333-105.813333-238.933333-238.933333 0-105.813333 71.68-197.973333 170.666667-228.693333 6.826667-71.68 71.68-129.706667 143.36-129.706667h6.826666c20.48 0 40.96 3.413333 61.44 13.653333C426.666667 208.213333 498.346667 170.666667 573.44 170.666667h6.826667c119.466667 0 221.866667 88.746667 235.52 208.213333 116.053333 17.066667 208.213333 116.053333 208.213333 235.52 0 133.12-105.813333 238.933333-238.933333 238.933333zM317.44 290.133333C256 290.133333 204.8 337.92 204.8 399.36c0 6.826667-6.826667 13.653333-13.653333 17.066667-92.16 20.48-157.013333 102.4-157.013334 197.973333 0 112.64 92.16 204.8 204.8 204.8h546.133334c112.64 0 204.8-92.16 204.8-204.8 0-105.813333-81.92-197.973333-191.146667-204.8-6.826667 0-13.653333-6.826667-17.066667-17.066667C778.24 286.72 686.08 204.8 580.266667 204.8h-3.413334l-3.413333-17.066667V204.8c-68.266667 0-129.706667 34.133333-167.253333 95.573333-6.826667 6.826667-17.066667 10.24-23.893334 6.826667-17.066667-10.24-37.546667-17.066667-58.026666-17.066667h-3.413334-3.413333z" fill="" p-id="4121"></path></svg>
