<svg t="1741930458385" class="icon" viewBox="0 0 1024 1024" version="1.1" xmlns="http://www.w3.org/2000/svg" p-id="2643" width="256" height="256"><path d="M227.84 0h-0.512C101.792 0 0 101.792 0 227.328v569.344C0 922.208 101.792 1024 227.328 1024h569.344C922.208 1024 1024 922.208 1024 796.672V227.328C1024 101.792 922.208 0 796.672 0H227.84z m278.4 109.568c99.68 0 189.792 38.5 258.4 110.368 52.224 54.272 81.568 111.744 96.608 187.392 5.12 25.184 5.12 93.856 0.288 122.208-16.864 92.8-67.008 171.616-137.344 225.312l-0.9 0.64c-25.952 19.616-89.44 53.792-99.68 53.792-3.744 0-4.1-3.872-2.4-19.616 3.072-25.248 6.144-30.5 20.48-36.512 22.88-9.568 61.792-37.28 85.664-61.216a325.782 325.782 0 0 0 85.184-148.608l0.512-2.272c8.864-35.168 7.84-113.312-2.048-149.5C779.936 276.512 686.08 187.1 571.04 163.2c-33.44-6.816-94.208-6.816-128 0-116.384 23.9-212.64 117.76-242.016 235.872-7.84 32.1-7.84 110.24 0 142.336 19.456 78.176 69.984 149.856 136.192 192.512 12.96 8.544 28.672 17.408 35.168 20.128 14.336 6.144 17.408 11.264 20.128 36.512 1.7 15.36 1.28 19.808-2.4 19.808-2.4 0-19.808-7.52-38.24-16.384l-1.7-1.28C244.7 740.832 177.12 653.024 152.544 536.192c-6.144-30.112-7.168-102.048-1.28-129.7 15.36-74.24 44.7-132.256 93.536-183.648 70.3-74.112 160.768-113.312 261.408-113.28z m5.728 119.9c17.44 0.16 34.272 1.7 47.2 4.512 118.784 26.464 203.1 145.408 186.72 263.424-6.5 47.52-22.88 86.624-51.872 122.88-14.336 18.336-49.152 49.056-55.3 49.056-0.992 0-2.048-11.616-2.048-25.728v-25.82l17.76-21.152c66.912-80.128 62.112-192.1-10.912-265.568C615.2 302.5 582.432 285.664 540.1 277.92c-27.3-5.024-33.12-5.024-61.792-0.352-43.52 7.136-77.216 23.968-107.168 53.6-73.376 72.7-78.176 185.248-11.264 265.472l17.624 21.152v25.952c0 14.336-1.152 25.952-2.56 25.952-1.28 0-11.264-6.816-21.856-15.36l-1.44-0.48c-35.488-28.32-66.912-78.592-79.872-127.872-7.84-29.792-7.84-86.368 0.352-116.064 21.5-80.128 80.544-142.3 162.464-171.488 17.5-6.176 48.352-9.376 77.44-8.992zM506.4 357.024c13.216 0 26.464 2.56 36 7.584 20.832 10.784 37.888 31.776 44.384 53.728 19.808 67.328-51.552 126.3-116.064 96.16h-0.64c-30.368-14.112-46.752-40.8-47.1-75.52 0-31.264 17.408-58.5 47.456-74.464 9.568-4.992 22.784-7.52 35.968-7.52z m-0.448 201.728c42.144-0.16 72.8 14.88 84.064 41.376 8.448 19.808 5.28 82.432-9.312 183.552-9.888 70.656-15.36 88.48-29.024 100.512-18.784 16.64-45.408 21.248-70.656 12.288h-0.124c-30.56-10.976-37.12-25.824-49.664-112.8-14.56-101.12-17.76-163.744-9.312-183.552 11.168-26.272 41.568-41.216 84-41.376z" fill="#2c2c2c" p-id="2644"></path></svg>
