<svg t="1741498659029" class="icon" viewBox="0 0 1024 1024" version="1.1" xmlns="http://www.w3.org/2000/svg" p-id="12659" width="256" height="256"><path d="M512 1024C794.770286 1024 1024 794.770286 1024 512S794.770286 0 512 0 0 229.229714 0 512 229.229714 1024 512 1024zM313.685333 418.718476c-8.289524 1.26781-16.335238 2.584381-24.234666 3.852191H289.158095c-7.801905 1.26781-15.457524 2.535619-23.161905 3.705904l-20.772571 3.267048c-13.848381 2.194286-27.696762 4.388571-41.545143 6.436571-20.626286 2.925714-34.767238-9.849905-32.768-30.037333 1.462857-14.628571 3.462095-29.354667 5.851429-44.032 2.29181-14.482286 9.947429-21.942857 24.722285-24.380952 72.655238-11.897905 145.310476-23.698286 217.965715-35.449905l30.378666-4.87619c74.556952-12.092952 149.211429-24.185905 223.719619-36.425143 19.651048-3.169524 39.253333-6.485333 58.85562-9.801143l40.228571-6.826667c16.481524-2.730667 32.963048 10.48381 31.939048 26.819048-0.975238 17.408-3.510857 34.620952-6.631619 51.931428-2.340571 12.580571-11.995429 18.67581-24.624762 20.772572l-23.649524 3.900952c-24.868571 4.047238-49.737143 8.143238-74.800762 11.946667-5.461333 0.78019-7.314286 2.925714-7.314286 8.192v0.487619c0.195048 86.454857 0.341333 172.763429 0.341334 259.218286 0 19.504762 7.996952 36.473905 16.969142 53.248 7.314286 13.55581 14.531048 27.209143 21.74781 40.862476 12.775619 24.137143 25.551238 48.274286 38.960762 72.021333 8.630857 15.36 0.633905 36.62019-21.796572 35.352381-18.480762-1.121524-37.059048-0.633905-55.686095-0.146286a21.357714 21.357714 0 0 1-20.48-11.312762c-23.747048-42.76419-47.396571-85.674667-70.802286-128.731428-8.192-14.969905-10.142476-31.597714-10.142476-48.518095V377.709714c-1.26781 0.146286-2.340571 0.195048-3.315809 0.24381-2.048 0.146286-3.657143 0.24381-5.36381 0.585143l-42.617905 6.92419-1.121523 0.195048c-30.524952 4.973714-61.001143 9.947429-91.623619 14.628571-7.119238 1.170286-8.630857 4.047238-8.630858 10.532572l0.048762 115.321904c0 76.897524 0 153.746286 0.487619 230.64381 0.146286 20.187429-6.192762 34.669714-24.283428 44.860952-9.020952 5.022476-17.65181 10.776381-26.282667 16.579048l-4.144762 2.730667-1.511619 0.975238c-9.508571 6.339048-19.309714 8.289524-29.598476 2.925714-10.825143-5.656381-15.11619-15.018667-15.11619-26.770286 0.097524-81.92 0.048762-163.84 0-245.711238v-122.88l0.146285-5.071238v-5.705143z" fill="#000000" p-id="12660"></path></svg>
